<?xml version="1.0" encoding="UTF-8" standalone="no"?>
<svg
   xmlns:dc="http://purl.org/dc/elements/1.1/"
   xmlns:cc="http://creativecommons.org/ns#"
   xmlns:rdf="http://www.w3.org/1999/02/22-rdf-syntax-ns#"
   xmlns:svg="http://www.w3.org/2000/svg"
   xmlns="http://www.w3.org/2000/svg"
   viewBox="0 0 63.163467 93.690132"
   height="93.690132"
   width="63.163467"
   xml:space="preserve"
   id="svg2"
   version="1.1"><metadata
     id="metadata8"><rdf:RDF><cc:Work
         rdf:about=""><dc:format>image/svg+xml</dc:format><dc:type
           rdf:resource="http://purl.org/dc/dcmitype/StillImage" /></cc:Work></rdf:RDF></metadata><defs
     id="defs6"><clipPath
       id="clipPath18"
       clipPathUnits="userSpaceOnUse"><path
         id="path16"
         d="M 0,70.268 H 47.373 V 0 H 0 Z" /></clipPath></defs><g
     transform="matrix(1.3333333,0,0,-1.3333333,0,93.690133)"
     id="g10"><g
       id="g12"><g
         clip-path="url(#clipPath18)"
         id="g14"><g
           transform="translate(23.7661,39.5977)"
           id="g20"><path
             id="path22"
             style="fill:none;stroke:#2d2d2d;stroke-width:3;stroke-linecap:round;stroke-linejoin:round;stroke-miterlimit:10;stroke-dasharray:none;stroke-opacity:1"
             d="m 0,0 c 1.806,0 3.512,0.217 6.07,0.822 8.943,2.112 16.036,-3.261 16.036,-13.22 0,-11.463 -9.509,-22.97 -15.557,-24.913 -2.938,-0.942 -4.855,-0.769 -6.628,-0.782 -1.774,0.013 -3.691,-0.16 -6.63,0.782 -6.048,1.943 -15.557,13.45 -15.557,24.913 0,9.959 7.097,15.332 16.037,13.22 C -3.669,0.217 -1.964,0 -0.158,0" /></g><g
           transform="translate(45.2354,68.7676)"
           id="g24"><path
             id="path26"
             style="fill:none;stroke:#2d2d2d;stroke-width:3;stroke-linecap:round;stroke-linejoin:round;stroke-miterlimit:10;stroke-dasharray:none;stroke-opacity:1"
             d="m 0,0 c -11.495,0 -18.143,-9.567 -20.5,-18.726 -0.582,-2.259 -2.075,-1.967 -2.536,-0.894 -2.657,6.206 -6.232,11.123 -13.565,11.123 -0.056,0 -0.113,-0.005 -0.168,-0.008 0,-8.449 6.478,-14.564 15.174,-14.564 10.026,0 21.311,11.397 21.595,23.069 z" /></g><g
           transform="translate(34.1494,35.3721)"
           id="g28"><path
             id="path30"
             style="fill:none;stroke:#2d2d2d;stroke-width:2;stroke-linecap:round;stroke-linejoin:round;stroke-miterlimit:10;stroke-dasharray:none;stroke-opacity:1"
             d="m 0,0 c 1.632,0 2.767,-0.61 3.69,-1.376 1.319,-1.101 2.025,-4.118 2.025,-4.118 m -7.941,5.197 C -1.447,-0.102 -0.698,0 0,0" /></g><g
           transform="translate(24.647,47.0459)"
           id="g32"><path
             id="path34"
             style="fill:none;stroke:#2d2d2d;stroke-width:2;stroke-linecap:round;stroke-linejoin:round;stroke-miterlimit:10;stroke-dasharray:none;stroke-opacity:1"
             d="M 0,0 C 0,0 8.94,7.635 12.134,13.251" /></g></g></g></g></svg>