<?xml version="1.0" encoding="UTF-8" standalone="no"?>
<svg
   xmlns:dc="http://purl.org/dc/elements/1.1/"
   xmlns:cc="http://creativecommons.org/ns#"
   xmlns:rdf="http://www.w3.org/1999/02/22-rdf-syntax-ns#"
   xmlns:svg="http://www.w3.org/2000/svg"
   xmlns="http://www.w3.org/2000/svg"
   viewBox="0 0 93.171867 64.558533"
   height="64.558533"
   width="93.171867"
   xml:space="preserve"
   id="svg2"
   version="1.1"><metadata
     id="metadata8"><rdf:RDF><cc:Work
         rdf:about=""><dc:format>image/svg+xml</dc:format><dc:type
           rdf:resource="http://purl.org/dc/dcmitype/StillImage" /></cc:Work></rdf:RDF></metadata><defs
     id="defs6"><clipPath
       id="clipPath18"
       clipPathUnits="userSpaceOnUse"><path
         id="path16"
         d="M 0,48.419 H 69.879 V 0 H 0 Z" /></clipPath></defs><g
     transform="matrix(1.3333333,0,0,-1.3333333,0,64.558533)"
     id="g10"><g
       id="g12"><g
         clip-path="url(#clipPath18)"
         id="g14"><g
           transform="translate(12.4526,14.4712)"
           id="g20"><path
             id="path22"
             style="fill:none;stroke:#2d2d2d;stroke-width:3;stroke-linecap:round;stroke-linejoin:round;stroke-miterlimit:10;stroke-dasharray:none;stroke-opacity:1"
             d="M 0,0 H -7.169 V 19.475 H 0" /></g><g
           transform="translate(58.4175,33.9463)"
           id="g24"><path
             id="path26"
             style="fill:none;stroke:#2d2d2d;stroke-width:3;stroke-linecap:round;stroke-linejoin:round;stroke-miterlimit:10;stroke-dasharray:none;stroke-opacity:1"
             d="M 0,0 H 6.771 V -19.475 H 0" /></g><g
           transform="translate(30.6709,42.002)"
           id="g28"><path
             id="path30"
             style="fill:#2d2d2d;fill-opacity:1;fill-rule:nonzero;stroke:none"
             d="m 0,0 h -11.146 c -1.104,0 -2,-0.896 -2,-2 v -9.098 c 0,-1.105 0.896,-2 2,-2 H 0 c 1.104,0 2,0.895 2,2 V -2 C 2,-0.896 1.104,0 0,0 M 0,-11.098 H -11.146 V -2 H 0 Z" /></g><g
           transform="translate(50.9126,42.002)"
           id="g32"><path
             id="path34"
             style="fill:#2d2d2d;fill-opacity:1;fill-rule:nonzero;stroke:none"
             d="m 0,0 h -11.146 c -1.105,0 -2,-0.896 -2,-2 v -9.098 c 0,-1.105 0.895,-2 2,-2 H 0 c 1.104,0 2,0.895 2,2 V -2 C 2,-0.896 1.104,0 0,0 M 0,-11.098 H -11.146 V -2 H 0 Z" /></g><g
           transform="translate(53.6987,48.4189)"
           id="g36"><path
             id="path38"
             style="fill:#2d2d2d;fill-opacity:1;fill-rule:nonzero;stroke:none"
             d="m 0,0 h -36.959 c -3.159,0 -5.729,-2.57 -5.729,-5.729 V -42.69 c 0,-3.159 2.57,-5.729 5.729,-5.729 H 0 c 3.159,0 5.729,2.57 5.729,5.729 V -5.729 C 5.729,-2.57 3.159,0 0,0 m 0,-3 c 1.5,0 2.729,-1.228 2.729,-2.729 V -42.69 c 0,-1.5 -1.229,-2.729 -2.729,-2.729 h -36.959 c -1.502,0 -2.729,1.229 -2.729,2.729 v 36.961 c 0,1.501 1.227,2.729 2.729,2.729 L 0,-3" /></g><g
           transform="translate(68.8789,24.21)"
           id="g40"><path
             id="path42"
             style="fill:none;stroke:#2d2d2d;stroke-width:2;stroke-linecap:round;stroke-linejoin:round;stroke-miterlimit:10;stroke-dasharray:none;stroke-opacity:1"
             d="M 0,0 H -16.29" /></g><g
           transform="translate(47.0464,24.21)"
           id="g44"><path
             id="path46"
             style="fill:none;stroke:#2d2d2d;stroke-width:2;stroke-linecap:round;stroke-linejoin:round;stroke-miterlimit:10;stroke-dasharray:none;stroke-opacity:1"
             d="M 0,0 H -46.046" /></g><g
           transform="translate(30.6709,19.6294)"
           id="g48"><path
             id="path50"
             style="fill:#2d2d2d;fill-opacity:1;fill-rule:nonzero;stroke:none"
             d="m 0,0 h -11.146 c -1.104,0 -2,-0.896 -2,-2 v -9.099 c 0,-1.105 0.896,-2 2,-2 H 0 c 1.104,0 2,0.895 2,2 V -2 C 2,-0.896 1.104,0 0,0 M 0,-11.099 H -11.146 V -2 H 0 Z" /></g><g
           transform="translate(50.9126,19.6294)"
           id="g52"><path
             id="path54"
             style="fill:#2d2d2d;fill-opacity:1;fill-rule:nonzero;stroke:none"
             d="m 0,0 h -11.146 c -1.105,0 -2,-0.896 -2,-2 v -9.099 c 0,-1.105 0.895,-2 2,-2 H 0 c 1.104,0 2,0.895 2,2 V -2 C 2,-0.896 1.104,0 0,0 M 0,-11.099 H -11.146 V -2 H 0 Z" /></g></g></g></g></svg>