<?xml version="1.0" encoding="UTF-8" standalone="no"?>
<svg
   xmlns:dc="http://purl.org/dc/elements/1.1/"
   xmlns:cc="http://creativecommons.org/ns#"
   xmlns:rdf="http://www.w3.org/1999/02/22-rdf-syntax-ns#"
   xmlns:svg="http://www.w3.org/2000/svg"
   xmlns="http://www.w3.org/2000/svg"
   viewBox="0 0 92.957069 73.197868"
   height="73.197868"
   width="92.957069"
   xml:space="preserve"
   id="svg2"
   version="1.1"><metadata
     id="metadata8"><rdf:RDF><cc:Work
         rdf:about=""><dc:format>image/svg+xml</dc:format><dc:type
           rdf:resource="http://purl.org/dc/dcmitype/StillImage" /></cc:Work></rdf:RDF></metadata><defs
     id="defs6"><clipPath
       id="clipPath18"
       clipPathUnits="userSpaceOnUse"><path
         id="path16"
         d="M 0,54.898 H 69.718 V 0 H 0 Z" /></clipPath></defs><g
     transform="matrix(1.3333333,0,0,-1.3333333,0,73.197867)"
     id="g10"><g
       id="g12"><g
         clip-path="url(#clipPath18)"
         id="g14"><g
           transform="translate(66.7178,54.8984)"
           id="g20"><path
             id="path22"
             style="fill:#2d2d2d;fill-opacity:1;fill-rule:nonzero;stroke:none"
             d="m 0,0 h -63.718 c -1.657,0 -3,-1.343 -3,-3 v -48.898 c 0,-1.658 1.343,-3 3,-3 H 0 c 1.657,0 3,1.342 3,3 V -3 C 3,-1.343 1.657,0 0,0 M 0,-51.898 H -63.718 V -3 H 0 Z" /></g><g
           transform="translate(34.8608,25.4873)"
           id="g24"><path
             id="path26"
             style="fill:none;stroke:#2d2d2d;stroke-width:2;stroke-linecap:round;stroke-linejoin:round;stroke-miterlimit:10;stroke-dasharray:none;stroke-opacity:1"
             d="m 0,0 c 3.913,0 2.942,-8.571 2.303,-11.867 -0.499,-2.566 1.184,-3.07 2.046,-3.07 4.245,0 6.196,13.038 7.044,20.774 0.968,8.8 -2.303,10.413 -7.719,8.976 C 2.124,14.402 1.093,14.256 0,14.256 c -1.095,0 -2.126,0.146 -3.675,0.557 -5.415,1.437 -8.687,-0.176 -7.721,-8.976 0.849,-7.736 2.802,-20.774 7.045,-20.774 0.861,0 2.544,0.504 2.047,3.07 C -2.945,-8.571 -3.915,0 0,0 Z" /></g><g
           transform="translate(60.8223,42.0146)"
           id="g28"><path
             id="path30"
             style="fill:none;stroke:#2d2d2d;stroke-width:2;stroke-linecap:round;stroke-linejoin:round;stroke-miterlimit:10;stroke-dasharray:none;stroke-opacity:1"
             d="m 0,0 c 0,-2.105 -1.708,-3.815 -3.815,-3.815 -2.106,0 -3.814,1.71 -3.814,3.815 0,2.106 1.708,3.815 3.814,3.815 C -1.708,3.815 0,2.106 0,0 Z" /></g><g
           transform="translate(16.5034,21.8418)"
           id="g32"><path
             id="path34"
             style="fill:none;stroke:#2d2d2d;stroke-width:2;stroke-linecap:round;stroke-linejoin:round;stroke-miterlimit:10;stroke-dasharray:none;stroke-opacity:1"
             d="m 0,0 c 0,-2.106 -1.708,-3.814 -3.814,-3.814 -2.107,0 -3.815,1.708 -3.815,3.814 0,2.107 1.708,3.814 3.815,3.814 C -1.708,3.814 0,2.107 0,0 Z" /></g><g
           transform="translate(57.0073,42.0146)"
           id="g36"><path
             id="path38"
             style="fill:none;stroke:#2d2d2d;stroke-width:2;stroke-linecap:round;stroke-linejoin:round;stroke-miterlimit:10;stroke-dasharray:none;stroke-opacity:1"
             d="M 0,0 -16.298,-13.427" /></g><g
           transform="translate(12.689,21.8418)"
           id="g40"><path
             id="path42"
             style="fill:none;stroke:#2d2d2d;stroke-width:2;stroke-linecap:round;stroke-linejoin:round;stroke-miterlimit:10;stroke-dasharray:none;stroke-opacity:1"
             d="M 0,0 22.17,11.271" /></g><g
           transform="translate(8.874,45.1357)"
           id="g44"><path
             id="path46"
             style="fill:none;stroke:#2d2d2d;stroke-width:2;stroke-linecap:round;stroke-linejoin:round;stroke-miterlimit:10;stroke-dasharray:none;stroke-opacity:1"
             d="M 0,0 H 10.766" /></g><g
           transform="translate(8.874,40.3682)"
           id="g48"><path
             id="path50"
             style="fill:none;stroke:#2d2d2d;stroke-width:2;stroke-linecap:round;stroke-linejoin:round;stroke-miterlimit:10;stroke-dasharray:none;stroke-opacity:1"
             d="M 0,0 H 7.211" /></g><g
           transform="translate(54.1318,8.7656)"
           id="g52"><path
             id="path54"
             style="fill:none;stroke:#2d2d2d;stroke-width:2;stroke-linecap:round;stroke-linejoin:round;stroke-miterlimit:10;stroke-dasharray:none;stroke-opacity:1"
             d="M 0,0 H 7.211" /></g><g
           transform="translate(57.0073,13.4473)"
           id="g56"><path
             id="path58"
             style="fill:none;stroke:#2d2d2d;stroke-width:2;stroke-linecap:round;stroke-linejoin:round;stroke-miterlimit:10;stroke-dasharray:none;stroke-opacity:1"
             d="M 0,0 H 4.335" /></g><g
           transform="translate(51.1982,13.4473)"
           id="g60"><path
             id="path62"
             style="fill:none;stroke:#2d2d2d;stroke-width:2;stroke-linecap:round;stroke-linejoin:round;stroke-miterlimit:10;stroke-dasharray:none;stroke-opacity:1"
             d="M 0,0 H 1.345" /></g><g
           transform="translate(37.123,33.1133)"
           id="g64"><path
             id="path66"
             style="fill:#2d2d2d;fill-opacity:1;fill-rule:nonzero;stroke:none"
             d="m 0,0 c 0,-1.251 -1.013,-2.265 -2.264,-2.265 -1.25,0 -2.263,1.014 -2.263,2.265 0,1.251 1.013,2.265 2.263,2.265 C -1.013,2.265 0,1.251 0,0" /></g><g
           transform="translate(42.9746,28.5879)"
           id="g68"><path
             id="path70"
             style="fill:#2d2d2d;fill-opacity:1;fill-rule:nonzero;stroke:none"
             d="m 0,0 c 0,-1.251 -1.015,-2.265 -2.266,-2.265 -1.25,0 -2.264,1.014 -2.264,2.265 0,1.249 1.014,2.264 2.264,2.264 C -1.015,2.264 0,1.249 0,0" /></g></g></g></g></svg>