<?xml version="1.0" encoding="UTF-8" standalone="no"?>
<svg
   xmlns:dc="http://purl.org/dc/elements/1.1/"
   xmlns:cc="http://creativecommons.org/ns#"
   xmlns:rdf="http://www.w3.org/1999/02/22-rdf-syntax-ns#"
   xmlns:svg="http://www.w3.org/2000/svg"
   xmlns="http://www.w3.org/2000/svg"
   viewBox="0 0 93.323601 77.865196"
   height="77.865196"
   width="93.323601"
   xml:space="preserve"
   id="svg2"
   version="1.1"><metadata
     id="metadata8"><rdf:RDF><cc:Work
         rdf:about=""><dc:format>image/svg+xml</dc:format><dc:type
           rdf:resource="http://purl.org/dc/dcmitype/StillImage" /></cc:Work></rdf:RDF></metadata><defs
     id="defs6"><clipPath
       id="clipPath18"
       clipPathUnits="userSpaceOnUse"><path
         id="path16"
         d="M 0,58.399 H 69.993 V 0 H 0 Z" /></clipPath></defs><g
     transform="matrix(1.3333333,0,0,-1.3333333,0,77.8652)"
     id="g10"><g
       id="g12"><g
         clip-path="url(#clipPath18)"
         id="g14"><g
           transform="translate(58.8682,58.3989)"
           id="g20"><path
             id="path22"
             style="fill:#2d2d2d;fill-opacity:1;fill-rule:nonzero;stroke:none"
             d="m 0,0 h -47.81 c -1.026,0 -1.981,-0.524 -2.532,-1.39 l -8.057,-12.673 c -0.69,-1.085 -0.612,-2.489 0.194,-3.49 l 31.962,-39.726 c 0.569,-0.708 1.429,-1.12 2.337,-1.12 0.908,0 1.768,0.412 2.338,1.119 l 31.964,39.726 c 0.806,1.002 0.884,2.406 0.194,3.491 L 2.532,-1.39 C 1.981,-0.524 1.026,0 0,0 M 0,-3 8.058,-15.673 -23.906,-55.399 -55.868,-15.673 -47.81,-3 H 0" /></g><g
           transform="translate(1.979,42.7261)"
           id="g24"><path
             id="path26"
             style="fill:none;stroke:#2d2d2d;stroke-width:2;stroke-linecap:round;stroke-linejoin:round;stroke-miterlimit:10;stroke-dasharray:none;stroke-opacity:1"
             d="M 0,0 H 51.452" /></g><g
           transform="translate(58.8315,42.7261)"
           id="g28"><path
             id="path30"
             style="fill:none;stroke:#2d2d2d;stroke-width:2;stroke-linecap:round;stroke-linejoin:round;stroke-miterlimit:10;stroke-dasharray:none;stroke-opacity:1"
             d="M 0,0 H 10.161" /></g><g
           transform="translate(34.9624,3)"
           id="g32"><path
             id="path34"
             style="fill:none;stroke:#2d2d2d;stroke-width:2;stroke-linecap:round;stroke-linejoin:round;stroke-miterlimit:10;stroke-dasharray:none;stroke-opacity:1"
             d="M 0,0 0.001,39.726" /></g><g
           transform="translate(34.9624,3)"
           id="g36"><path
             id="path38"
             style="fill:none;stroke:#2d2d2d;stroke-width:2;stroke-linecap:round;stroke-linejoin:round;stroke-miterlimit:10;stroke-dasharray:none;stroke-opacity:1"
             d="M 0,0 22.62,48.657" /></g><g
           transform="translate(34.9624,3)"
           id="g40"><path
             id="path42"
             style="fill:none;stroke:#2d2d2d;stroke-width:2;stroke-linecap:round;stroke-linejoin:round;stroke-miterlimit:10;stroke-dasharray:none;stroke-opacity:1"
             d="M 0,0 -22.453,48.792" /></g><g
           transform="translate(26.2817,55.3989)"
           id="g44"><path
             id="path46"
             style="fill:none;stroke:#2d2d2d;stroke-width:2;stroke-linecap:round;stroke-linejoin:round;stroke-miterlimit:10;stroke-dasharray:none;stroke-opacity:1"
             d="M 0,0 -8.58,-12.673" /></g><g
           transform="translate(26.2817,55.3989)"
           id="g48"><path
             id="path50"
             style="fill:none;stroke:#2d2d2d;stroke-width:2;stroke-linecap:round;stroke-linejoin:round;stroke-miterlimit:10;stroke-dasharray:none;stroke-opacity:1"
             d="M 0,0 8.58,-12.673" /></g><g
           transform="translate(43.5425,55.3989)"
           id="g52"><path
             id="path54"
             style="fill:none;stroke:#2d2d2d;stroke-width:2;stroke-linecap:round;stroke-linejoin:round;stroke-miterlimit:10;stroke-dasharray:none;stroke-opacity:1"
             d="M 0,0 -8.58,-12.673" /></g><g
           transform="translate(43.5425,55.3989)"
           id="g56"><path
             id="path58"
             style="fill:none;stroke:#2d2d2d;stroke-width:2;stroke-linecap:round;stroke-linejoin:round;stroke-miterlimit:10;stroke-dasharray:none;stroke-opacity:1"
             d="M 0,0 8.581,-12.673" /></g></g></g></g></svg>