<?xml version="1.0" encoding="UTF-8" standalone="no"?>
<svg
   xmlns:dc="http://purl.org/dc/elements/1.1/"
   xmlns:cc="http://creativecommons.org/ns#"
   xmlns:rdf="http://www.w3.org/1999/02/22-rdf-syntax-ns#"
   xmlns:svg="http://www.w3.org/2000/svg"
   xmlns="http://www.w3.org/2000/svg"
   viewBox="0 0 89.432266 93.692665"
   height="93.692665"
   width="89.432266"
   xml:space="preserve"
   id="svg2"
   version="1.1"><metadata
     id="metadata8"><rdf:RDF><cc:Work
         rdf:about=""><dc:format>image/svg+xml</dc:format><dc:type
           rdf:resource="http://purl.org/dc/dcmitype/StillImage" /></cc:Work></rdf:RDF></metadata><defs
     id="defs6"><clipPath
       id="clipPath18"
       clipPathUnits="userSpaceOnUse"><path
         id="path16"
         d="M 0,70.27 H 67.074 V 0 H 0 Z" /></clipPath></defs><g
     transform="matrix(1.3333333,0,0,-1.3333333,0,93.692667)"
     id="g10"><g
       id="g12"><g
         clip-path="url(#clipPath18)"
         id="g14"><g
           transform="translate(58.7002,66.1699)"
           id="g20"><path
             id="path22"
             style="fill:#2d2d2d;fill-opacity:1;fill-rule:nonzero;stroke:none"
             d="M 0,0 C -0.795,0 -1.558,-0.315 -2.121,-0.878 L -6.594,-5.35 c -0.564,-0.563 -0.88,-1.327 -0.88,-2.124 0.001,-0.285 0.041,-0.566 0.12,-0.835 l -11.135,-11.125 c -0.267,0.078 -0.546,0.118 -0.829,0.118 h -10e-4 c -0.796,0 -1.559,-0.317 -2.122,-0.879 l -17.833,-17.838 c -0.563,-0.564 -0.879,-1.327 -0.878,-2.123 0,-0.285 0.041,-0.566 0.119,-0.835 l -17.788,-17.776 c -0.563,-0.562 -0.879,-1.326 -0.879,-2.122 0,-0.796 0.316,-1.558 0.879,-2.122 l 2.282,-2.281 c 0.586,-0.585 1.353,-0.878 2.121,-0.878 0.768,0 1.536,0.293 2.121,0.879 l 17.782,17.779 c 0.269,-0.078 0.55,-0.119 0.835,-0.119 h 0.002 c 0.796,0 1.558,0.317 2.121,0.879 l 17.832,17.835 c 0.802,0.802 1.055,1.943 0.76,2.96 l 10.872,10.869 c 0.567,-0.507 1.282,-0.761 1.996,-0.761 0.768,0 1.535,0.293 2.121,0.878 l 4.471,4.469 c 1.172,1.171 1.172,3.07 0.002,4.242 L 2.123,-0.88 C 1.56,-0.316 0.797,0 0.001,0 Z m 0,-3 5.374,-5.38 -4.471,-4.469 -1.999,2 -14.849,-14.844 1.099,-1.103 -17.832,-17.835 -1.097,1.101 -19.643,-19.64 -2.282,2.281 19.649,19.636 -1.101,1.099 17.833,17.838 1.093,-1.096 L -3.372,-8.57 -4.474,-7.472 0,-3" /></g><g
           transform="translate(26.3198,19.9316)"
           id="g24"><path
             id="path26"
             style="fill:none;stroke:#2d2d2d;stroke-width:2;stroke-linecap:round;stroke-linejoin:round;stroke-miterlimit:10;stroke-dasharray:none;stroke-opacity:1"
             d="M 0,0 -6.293,6.294" /></g><g
           transform="translate(45.4268,39.1416)"
           id="g28"><path
             id="path30"
             style="fill:none;stroke:#2d2d2d;stroke-width:2;stroke-linecap:round;stroke-linejoin:round;stroke-miterlimit:10;stroke-dasharray:none;stroke-opacity:1"
             d="M 0,0 -6.293,6.293" /></g><g
           transform="translate(58.9419,52.6006)"
           id="g32"><path
             id="path34"
             style="fill:none;stroke:#2d2d2d;stroke-width:2;stroke-linecap:round;stroke-linejoin:round;stroke-miterlimit:10;stroke-dasharray:none;stroke-opacity:1"
             d="M 0,0 -6.293,6.293" /></g><g
           transform="translate(26.3481,26.2256)"
           id="g36"><path
             id="path38"
             style="fill:none;stroke:#2d2d2d;stroke-width:2;stroke-linecap:round;stroke-linejoin:round;stroke-miterlimit:10;stroke-dasharray:none;stroke-opacity:1"
             d="M 0,0 -2.989,2.985" /></g><g
           transform="translate(29.5742,29.4531)"
           id="g40"><path
             id="path42"
             style="fill:none;stroke:#2d2d2d;stroke-width:2;stroke-linecap:round;stroke-linejoin:round;stroke-miterlimit:10;stroke-dasharray:none;stroke-opacity:1"
             d="M 0,0 -2.986,2.99" /></g><g
           transform="translate(32.8027,32.6826)"
           id="g44"><path
             id="path46"
             style="fill:none;stroke:#2d2d2d;stroke-width:2;stroke-linecap:round;stroke-linejoin:round;stroke-miterlimit:10;stroke-dasharray:none;stroke-opacity:1"
             d="M 0,0 -2.985,2.99" /></g><g
           transform="translate(36.0347,35.9141)"
           id="g48"><path
             id="path50"
             style="fill:none;stroke:#2d2d2d;stroke-width:2;stroke-linecap:round;stroke-linejoin:round;stroke-miterlimit:10;stroke-dasharray:none;stroke-opacity:1"
             d="M 0,0 -2.988,2.988" /></g><g
           transform="translate(39.2646,39.1416)"
           id="g52"><path
             id="path54"
             style="fill:none;stroke:#2d2d2d;stroke-width:2;stroke-linecap:round;stroke-linejoin:round;stroke-miterlimit:10;stroke-dasharray:none;stroke-opacity:1"
             d="M 0,0 -2.988,2.989" /></g><g
           transform="translate(54.9829,62.2852)"
           id="g56"><path
             id="path58"
             style="fill:none;stroke:#2d2d2d;stroke-width:2;stroke-linecap:round;stroke-linejoin:round;stroke-miterlimit:10;stroke-dasharray:none;stroke-opacity:1"
             d="M 0,0 -4.929,4.928" /></g><g
           transform="translate(51.6724,67.9326)"
           id="g60"><path
             id="path62"
             style="fill:#2d2d2d;fill-opacity:1;fill-rule:nonzero;stroke:none"
             d="m 0,0 c 0,-1.292 -1.045,-2.339 -2.337,-2.339 -1.292,0 -2.337,1.047 -2.337,2.339 0,1.289 1.045,2.337 2.337,2.337 C -1.045,2.337 0,1.289 0,0" /></g></g></g></g></svg>