<?xml version="1.0" encoding="UTF-8" standalone="no"?>
<svg
   xmlns:dc="http://purl.org/dc/elements/1.1/"
   xmlns:cc="http://creativecommons.org/ns#"
   xmlns:rdf="http://www.w3.org/1999/02/22-rdf-syntax-ns#"
   xmlns:svg="http://www.w3.org/2000/svg"
   xmlns="http://www.w3.org/2000/svg"
   viewBox="0 0 42.548801 93.333336"
   height="93.333336"
   width="42.548801"
   xml:space="preserve"
   id="svg2"
   version="1.1"><metadata
     id="metadata8"><rdf:RDF><cc:Work
         rdf:about=""><dc:format>image/svg+xml</dc:format><dc:type
           rdf:resource="http://purl.org/dc/dcmitype/StillImage" /></cc:Work></rdf:RDF></metadata><defs
     id="defs6"><clipPath
       id="clipPath18"
       clipPathUnits="userSpaceOnUse"><path
         id="path16"
         d="M 0,70 H 31.912 V 0 H 0 Z" /></clipPath></defs><g
     transform="matrix(1.3333333,0,0,-1.3333333,0,93.333333)"
     id="g10"><g
       id="g12"><g
         clip-path="url(#clipPath18)"
         id="g14"><g
           transform="translate(24.1353,70)"
           id="g20"><path
             id="path22"
             style="fill:#2d2d2d;fill-opacity:1;fill-rule:nonzero;stroke:none"
             d="m 0,0 h -16.79 c -0.506,0 -1.004,-0.128 -1.447,-0.373 -5.127,-2.823 -5.275,-7.281 -5.275,-7.78 0,-0.063 0.002,-0.127 0.006,-0.19 l 3.722,-58.846 c 0.1,-1.581 1.411,-2.811 2.994,-2.811 H 0 c 1.583,0 2.894,1.23 2.994,2.811 l 3.721,58.846 c 0.004,0.063 0.006,0.127 0.006,0.19 0,0.499 -0.148,4.956 -5.273,7.78 C 1.004,-0.128 0.506,0 0,0 M 0,-3 C 3.721,-5.05 3.721,-8.153 3.721,-8.153 L 0,-67 h -16.79 l -3.722,58.847 c 0,0 0,3.103 3.722,5.153 L 0,-3" /></g><g
           transform="translate(2.5181,61.7407)"
           id="g24"><path
             id="path26"
             style="fill:none;stroke:#2d2d2d;stroke-width:2;stroke-linecap:round;stroke-linejoin:round;stroke-miterlimit:10;stroke-dasharray:none;stroke-opacity:1"
             d="M 0,0 H 26.443" /></g><g
           transform="translate(22.0693,18.9814)"
           id="g28"><path
             id="path30"
             style="fill:none;stroke:#2d2d2d;stroke-width:2;stroke-linecap:round;stroke-linejoin:round;stroke-miterlimit:10;stroke-dasharray:none;stroke-opacity:1"
             d="M 0,0 6.49,0.864" /></g><g
           transform="translate(3.085,16.457)"
           id="g32"><path
             id="path34"
             style="fill:none;stroke:#2d2d2d;stroke-width:2;stroke-linecap:round;stroke-linejoin:round;stroke-miterlimit:10;stroke-dasharray:none;stroke-opacity:1"
             d="M 0,0 14.427,1.918" /></g><g
           transform="translate(22.0869,10.6519)"
           id="g36"><path
             id="path38"
             style="fill:none;stroke:#2d2d2d;stroke-width:2;stroke-linecap:round;stroke-linejoin:round;stroke-miterlimit:10;stroke-dasharray:none;stroke-opacity:1"
             d="M 0,0 5.898,0.786" /></g><g
           transform="translate(3.6255,8.1963)"
           id="g40"><path
             id="path42"
             style="fill:none;stroke:#2d2d2d;stroke-width:2;stroke-linecap:round;stroke-linejoin:round;stroke-miterlimit:10;stroke-dasharray:none;stroke-opacity:1"
             d="M 0,0 13.916,1.852" /></g><g
           transform="translate(22.0527,27.3115)"
           id="g44"><path
             id="path46"
             style="fill:none;stroke:#2d2d2d;stroke-width:2;stroke-linecap:round;stroke-linejoin:round;stroke-miterlimit:10;stroke-dasharray:none;stroke-opacity:1"
             d="M 0,0 7.048,0.937" /></g><g
           transform="translate(2.5913,24.7231)"
           id="g48"><path
             id="path50"
             style="fill:none;stroke:#2d2d2d;stroke-width:2;stroke-linecap:round;stroke-linejoin:round;stroke-miterlimit:10;stroke-dasharray:none;stroke-opacity:1"
             d="M 0,0 14.899,1.982" /></g><g
           transform="translate(22.0518,35.644)"
           id="g52"><path
             id="path54"
             style="fill:none;stroke:#2d2d2d;stroke-width:2;stroke-linecap:round;stroke-linejoin:round;stroke-miterlimit:10;stroke-dasharray:none;stroke-opacity:1"
             d="M 0,0 7.692,1.023" /></g><g
           transform="translate(2.0464,32.9819)"
           id="g56"><path
             id="path58"
             style="fill:none;stroke:#2d2d2d;stroke-width:2;stroke-linecap:round;stroke-linejoin:round;stroke-miterlimit:10;stroke-dasharray:none;stroke-opacity:1"
             d="M 0,0 15.444,2.055" /></g><g
           transform="translate(22.0244,43.9722)"
           id="g60"><path
             id="path62"
             style="fill:none;stroke:#2d2d2d;stroke-width:2;stroke-linecap:round;stroke-linejoin:round;stroke-miterlimit:10;stroke-dasharray:none;stroke-opacity:1"
             d="M 0,0 8.352,1.11" /></g><g
           transform="translate(1.4307,41.2319)"
           id="g64"><path
             id="path66"
             style="fill:none;stroke:#2d2d2d;stroke-width:2;stroke-linecap:round;stroke-linejoin:round;stroke-miterlimit:10;stroke-dasharray:none;stroke-opacity:1"
             d="M 0,0 16.022,2.132" /></g><g
           transform="translate(22.0249,52.3027)"
           id="g68"><path
             id="path70"
             style="fill:none;stroke:#2d2d2d;stroke-width:2;stroke-linecap:round;stroke-linejoin:round;stroke-miterlimit:10;stroke-dasharray:none;stroke-opacity:1"
             d="M 0,0 8.887,1.183" /></g><g
           transform="translate(1,49.5059)"
           id="g72"><path
             id="path74"
             style="fill:none;stroke:#2d2d2d;stroke-width:2;stroke-linecap:round;stroke-linejoin:round;stroke-miterlimit:10;stroke-dasharray:none;stroke-opacity:1"
             d="M 0,0 16.454,2.189" /></g></g></g></g></svg>