<?xml version="1.0" encoding="UTF-8" standalone="no"?>
<svg
   xmlns:dc="http://purl.org/dc/elements/1.1/"
   xmlns:cc="http://creativecommons.org/ns#"
   xmlns:rdf="http://www.w3.org/1999/02/22-rdf-syntax-ns#"
   xmlns:svg="http://www.w3.org/2000/svg"
   xmlns="http://www.w3.org/2000/svg"
   viewBox="0 0 91.329468 93.138"
   height="93.138"
   width="91.329468"
   xml:space="preserve"
   id="svg2"
   version="1.1"><metadata
     id="metadata8"><rdf:RDF><cc:Work
         rdf:about=""><dc:format>image/svg+xml</dc:format><dc:type
           rdf:resource="http://purl.org/dc/dcmitype/StillImage" /></cc:Work></rdf:RDF></metadata><defs
     id="defs6"><clipPath
       id="clipPath22"
       clipPathUnits="userSpaceOnUse"><path
         id="path20"
         d="M 0,69.854 H 68.497 V 0 H 0 Z" /></clipPath></defs><g
     transform="matrix(1.3333333,0,0,-1.3333333,0,93.138)"
     id="g10"><g
       transform="translate(48.8413,48.8447)"
       id="g12"><path
         id="path14"
         style="fill:none;stroke:#2d2d2d;stroke-width:3;stroke-linecap:round;stroke-linejoin:round;stroke-miterlimit:10;stroke-dasharray:none;stroke-opacity:1"
         d="M 0,0 6.975,6.978" /></g><g
       id="g16"><g
         clip-path="url(#clipPath22)"
         id="g18"><g
           transform="translate(56.1201,55.8223)"
           id="g24"><path
             id="path26"
             style="fill:none;stroke:#2d2d2d;stroke-width:3;stroke-linecap:round;stroke-linejoin:round;stroke-miterlimit:10;stroke-dasharray:none;stroke-opacity:1"
             d="m 0,0 c 1.187,-1.211 2.532,-1.671 4.357,-1.671 3.597,0 6.52,2.918 6.52,6.521 v 7.681" /></g><g
           transform="translate(45.5562,52.0498)"
           id="g28"><path
             id="path30"
             style="fill:#2d2d2d;fill-opacity:1;fill-rule:nonzero;stroke:none"
             d="m 0,0 c -0.768,0 -1.535,-0.293 -2.121,-0.879 l -17.112,-17.108 c -0.563,-0.563 -0.879,-1.326 -0.879,-2.122 0,-0.266 0.036,-0.529 0.104,-0.781 l -24.67,-24.67 c -1.17,-1.17 -1.171,-3.068 -0.002,-4.24 l 1.367,-1.369 c 0.562,-0.563 1.326,-0.881 2.122,-0.881 h 0.001 c 0.796,0 1.559,0.317 2.122,0.879 l 24.669,24.676 c 0.251,-0.068 0.512,-0.104 0.777,-0.104 h 0.002 c 0.796,0 1.559,0.317 2.122,0.879 L 5.614,-8.608 c 0.563,0.562 0.879,1.326 0.879,2.122 -0.001,0.796 -0.317,1.559 -0.881,2.122 L 2.12,-0.877 C 1.534,-0.292 0.767,0 0,0 m 0,-3 3.493,-3.487 -17.113,-17.112 -1.061,1.065 -26.509,-26.516 -1.366,1.369 26.509,26.509 -1.065,1.064 L 0,-3" /></g><g
           transform="translate(27.0493,31.9912)"
           id="g32"><path
             id="path34"
             style="fill:none;stroke:#2d2d2d;stroke-width:2;stroke-linecap:round;stroke-linejoin:round;stroke-miterlimit:10;stroke-dasharray:none;stroke-opacity:1"
             d="M 0,0 4.431,-4.43" /></g></g></g></g></svg>