<?xml version="1.0" encoding="UTF-8" standalone="no"?>
<svg
   xmlns:dc="http://purl.org/dc/elements/1.1/"
   xmlns:cc="http://creativecommons.org/ns#"
   xmlns:rdf="http://www.w3.org/1999/02/22-rdf-syntax-ns#"
   xmlns:svg="http://www.w3.org/2000/svg"
   xmlns="http://www.w3.org/2000/svg"
   viewBox="0 0 94.445999 94.486931"
   height="94.486931"
   width="94.445999"
   xml:space="preserve"
   id="svg2"
   version="1.1"><metadata
     id="metadata8"><rdf:RDF><cc:Work
         rdf:about=""><dc:format>image/svg+xml</dc:format><dc:type
           rdf:resource="http://purl.org/dc/dcmitype/StillImage" /></cc:Work></rdf:RDF></metadata><defs
     id="defs6"><clipPath
       id="clipPath18"
       clipPathUnits="userSpaceOnUse"><path
         id="path16"
         d="M 0,70.865 H 70.834 V 0 H 0 Z" /></clipPath></defs><g
     transform="matrix(1.3333333,0,0,-1.3333333,0,94.486933)"
     id="g10"><g
       id="g12"><g
         clip-path="url(#clipPath18)"
         id="g14"><g
           transform="translate(41.8394,47.4229)"
           id="g20"><path
             id="path22"
             style="fill:#2d2d2d;fill-opacity:1;fill-rule:nonzero;stroke:none"
             d="m 0,0 c -0.731,0 -1.463,-0.266 -2.04,-0.8 l -37.729,-34.974 c -0.026,-0.025 -0.052,-0.05 -0.077,-0.075 -1.287,-1.282 -1.995,-2.988 -1.993,-4.804 10e-4,-1.814 0.71,-3.516 1.996,-4.792 1.27,-1.272 2.973,-1.978 4.785,-1.978 1.811,0 3.514,0.705 4.793,1.985 0.028,0.027 0.054,0.054 0.08,0.083 L 4.787,-7.627 c 1.096,1.182 1.061,3.02 -0.079,4.16 L 2.122,-0.879 C 1.537,-0.294 0.769,0 0,0 m 0,-3 2.586,-2.588 -34.971,-37.728 c -0.738,-0.738 -1.706,-1.107 -2.673,-1.107 -0.967,0 -1.935,0.369 -2.671,1.107 -1.48,1.469 -1.48,3.867 0,5.341 L 0,-3" /></g><g
           transform="translate(57.8745,57.9072)"
           id="g24"><path
             id="path26"
             style="fill:none;stroke:#2d2d2d;stroke-width:3;stroke-linecap:round;stroke-linejoin:round;stroke-miterlimit:10;stroke-dasharray:none;stroke-opacity:1"
             d="M 0,0 -13.167,-13.165" /></g><g
           transform="translate(62.853,70.8652)"
           id="g28"><path
             id="path30"
             style="fill:#2d2d2d;fill-opacity:1;fill-rule:nonzero;stroke:none"
             d="m 0,0 c -4.399,0 -7.979,-3.579 -7.979,-7.979 0,-4.4 3.58,-7.979 7.979,-7.979 4.401,0 7.981,3.579 7.981,7.979 C 7.981,-3.579 4.401,0 0,0 m 0,-3 c 2.752,0 4.981,-2.228 4.981,-4.979 0,-2.749 -2.229,-4.979 -4.981,-4.979 -2.75,0 -4.979,2.23 -4.979,4.979 C -4.979,-5.228 -2.75,-3 0,-3" /></g><g
           transform="translate(37.3027,42.998)"
           id="g32"><path
             id="path34"
             style="fill:none;stroke:#2d2d2d;stroke-width:2;stroke-linecap:round;stroke-linejoin:round;stroke-miterlimit:10;stroke-dasharray:none;stroke-opacity:1"
             d="M 0,0 5.699,-5.697" /></g></g></g></g></svg>