<?xml version="1.0" encoding="UTF-8" standalone="no"?>
<svg
   xmlns:dc="http://purl.org/dc/elements/1.1/"
   xmlns:cc="http://creativecommons.org/ns#"
   xmlns:rdf="http://www.w3.org/1999/02/22-rdf-syntax-ns#"
   xmlns:svg="http://www.w3.org/2000/svg"
   xmlns="http://www.w3.org/2000/svg"
   viewBox="0 0 91.098267 93.423203"
   height="93.423203"
   width="91.098267"
   xml:space="preserve"
   id="svg2"
   version="1.1"><metadata
     id="metadata8"><rdf:RDF><cc:Work
         rdf:about=""><dc:format>image/svg+xml</dc:format><dc:type
           rdf:resource="http://purl.org/dc/dcmitype/StillImage" /></cc:Work></rdf:RDF></metadata><defs
     id="defs6"><clipPath
       id="clipPath18"
       clipPathUnits="userSpaceOnUse"><path
         id="path16"
         d="M 0,70.067 H 68.324 V 0 H 0 Z" /></clipPath><clipPath
       id="clipPath26"
       clipPathUnits="userSpaceOnUse"><path
         id="path24"
         d="m 44.0801,6.99414 h 7.415 v 0 z" /></clipPath></defs><g
     transform="matrix(1.3333333,0,0,-1.3333333,0,93.4232)"
     id="g10"><g
       id="g12"><g
         clip-path="url(#clipPath18)"
         id="g14"><g
           id="g20"><g
             id="g22" /><g
             id="g34"><g
               style="opacity:0.19999701"
               id="g32"
               clip-path="url(#clipPath26)"><g
                 id="g30"
                 transform="translate(44.0801,6.9941)"><path
                   id="path28"
                   style="fill:#000000;fill-opacity:1;fill-rule:nonzero;stroke:none"
                   d="M 0,0 H 7.415" /></g></g></g></g><g
           transform="translate(37.6768,37.8706)"
           id="g36"><path
             id="path38"
             style="fill:#2d2d2d;fill-opacity:1;fill-rule:nonzero;stroke:none"
             d="m 0,0 c -0.297,0 -0.597,-0.025 -0.892,-0.075 l -18.105,-3.036 c -2.898,-0.484 -4.864,-3.24 -4.381,-6.143 0.435,-2.585 2.648,-4.458 5.263,-4.458 0.293,0 0.588,0.024 0.879,0.073 l 17.002,2.854 24.225,-6.181 c 0.402,-0.108 0.857,-0.167 1.319,-0.167 2.439,0 4.564,1.651 5.168,4.016 0.354,1.38 0.148,2.817 -0.58,4.044 -0.727,1.226 -1.889,2.094 -3.272,2.447 L 1.314,-0.165 C 0.874,-0.054 0.437,0 0,0 m 0,-3 c 0.192,0 0.383,-0.024 0.572,-0.071 l 25.315,-6.463 c 1.252,-0.319 2.005,-1.589 1.684,-2.841 -0.269,-1.056 -1.219,-1.758 -2.261,-1.758 -0.191,0 -0.384,0.022 -0.577,0.073 l -24.839,6.338 -17.621,-2.958 c -0.13,-0.021 -0.26,-0.032 -0.388,-0.032 -1.126,0 -2.112,0.81 -2.304,1.951 -0.212,1.273 0.647,2.479 1.919,2.691 l 18.108,3.037 C -0.261,-3.011 -0.13,-3 0,-3" /></g><g
           transform="translate(6.2686,61.3574)"
           id="g40"><path
             id="path42"
             style="fill:#2d2d2d;fill-opacity:1;fill-rule:nonzero;stroke:none"
             d="m 0,0 v 0 c -0.773,0 -1.522,-0.165 -2.227,-0.488 -1.289,-0.589 -2.277,-1.65 -2.774,-2.986 -0.498,-1.338 -0.445,-2.79 0.15,-4.089 l 6.855,-14.686 c 0.863,-1.873 2.766,-3.091 4.843,-3.091 0.772,0 1.52,0.163 2.222,0.484 1.295,0.591 2.283,1.653 2.78,2.989 0.497,1.337 0.443,2.788 -0.151,4.086 L 4.842,-3.093 C 3.986,-1.223 2.082,0 0,0 m 0,-3 c 0.884,0 1.731,-0.505 2.123,-1.362 l 6.848,-14.67 c 0.537,-1.172 0.024,-2.56 -1.15,-3.096 -0.316,-0.144 -0.646,-0.212 -0.974,-0.212 -0.886,0 -1.731,0.506 -2.124,1.36 l -6.847,14.667 c -0.538,1.175 -0.024,2.563 1.15,3.099 C -0.658,-3.069 -0.327,-3 0,-3" /></g><g
           transform="translate(5.3364,70.0674)"
           id="g44"><path
             id="path46"
             style="fill:#2d2d2d;fill-opacity:1;fill-rule:nonzero;stroke:none"
             d="m 0,0 c -2.943,0 -5.336,-2.395 -5.336,-5.337 l 0.012,-1.125 c 0,-2.908 2.394,-5.301 5.338,-5.301 2.942,0 5.335,2.393 5.335,5.334 L 5.336,-5.304 C 5.336,-2.395 2.943,0 0,0 m 0,-3 c 1.29,0 2.336,-1.048 2.336,-2.337 l 0.013,-1.092 c 0,-1.29 -1.046,-2.334 -2.335,-2.334 -1.292,0 -2.338,1.044 -2.338,2.334 l -0.012,1.092 C -2.336,-4.048 -1.292,-3 0,-3" /></g><g
           transform="translate(22.3042,25.3433)"
           id="g48"><path
             id="path50"
             style="fill:none;stroke:#2d2d2d;stroke-width:3;stroke-linecap:round;stroke-linejoin:round;stroke-miterlimit:10;stroke-dasharray:none;stroke-opacity:1"
             d="m 0,0 13.293,-8.95 -0.766,-9.029 H 11.45 2.324 c -3.944,0 -4.968,-5.864 -4.968,-5.864 h 35.315 c 0,0 -1.02,5.864 -4.966,5.864 H 24.633 L 23.838,-7.924 H 20.859 L 11.248,2.283" /></g><g
           transform="translate(35.6279,16.7607)"
           id="g52"><path
             id="path54"
             style="fill:none;stroke:#2d2d2d;stroke-width:2;stroke-linecap:round;stroke-linejoin:round;stroke-miterlimit:10;stroke-dasharray:none;stroke-opacity:1"
             d="M 0,0 H 10.515" /></g><g
           transform="translate(23.5122,6.8027)"
           id="g56"><path
             id="path58"
             style="fill:none;stroke:#2d2d2d;stroke-width:2;stroke-linecap:round;stroke-linejoin:round;stroke-miterlimit:10;stroke-dasharray:none;stroke-opacity:1"
             d="M 0,0 H 16.159" /></g></g></g></g></svg>