<?xml version="1.0" encoding="UTF-8" standalone="no"?>
<svg
   xmlns:dc="http://purl.org/dc/elements/1.1/"
   xmlns:cc="http://creativecommons.org/ns#"
   xmlns:rdf="http://www.w3.org/1999/02/22-rdf-syntax-ns#"
   xmlns:svg="http://www.w3.org/2000/svg"
   xmlns="http://www.w3.org/2000/svg"
   viewBox="0 0 80.944 93.832664"
   height="93.832664"
   width="80.944"
   xml:space="preserve"
   id="svg2"
   version="1.1"><metadata
     id="metadata8"><rdf:RDF><cc:Work
         rdf:about=""><dc:format>image/svg+xml</dc:format><dc:type
           rdf:resource="http://purl.org/dc/dcmitype/StillImage" /></cc:Work></rdf:RDF></metadata><defs
     id="defs6"><clipPath
       id="clipPath18"
       clipPathUnits="userSpaceOnUse"><path
         id="path16"
         d="M 0,70.375 H 60.708 V 0 H 0 Z" /></clipPath></defs><g
     transform="matrix(1.3333333,0,0,-1.3333333,0,93.832667)"
     id="g10"><g
       id="g12"><g
         clip-path="url(#clipPath18)"
         id="g14"><g
           transform="translate(30.3555,1.5)"
           id="g20"><path
             id="path22"
             style="fill:none;stroke:#2d2d2d;stroke-width:3;stroke-linecap:round;stroke-linejoin:round;stroke-miterlimit:10;stroke-dasharray:none;stroke-opacity:1"
             d="M 0,0 C 12.331,0 23.088,6.703 28.853,16.661 21.383,28.194 9.999,28.575 9.999,28.575 6.366,24.941 0,19.592 -0.003,19.592 c 0,0 -6.366,5.349 -9.999,8.983 0,0 -11.384,-0.381 -18.853,-11.914 C -23.091,6.703 -12.334,0 0,0 Z" /></g><g
           transform="translate(20.3535,30.0752)"
           id="g24"><path
             id="path26"
             style="fill:none;stroke:#2d2d2d;stroke-width:2;stroke-linecap:round;stroke-linejoin:round;stroke-miterlimit:10;stroke-dasharray:none;stroke-opacity:1"
             d="M 0,0 C 0,0 -10.444,-7.061 -15.072,-16.961" /></g><g
           transform="translate(40.3628,30.0752)"
           id="g28"><path
             id="path30"
             style="fill:none;stroke:#2d2d2d;stroke-width:2;stroke-linecap:round;stroke-linejoin:round;stroke-miterlimit:10;stroke-dasharray:none;stroke-opacity:1"
             d="M 0,0 C 0,0 10.444,-7.061 15.072,-16.961" /></g><g
           transform="translate(30.3525,15.7876)"
           id="g32"><path
             id="path34"
             style="fill:none;stroke:#2d2d2d;stroke-width:2;stroke-linecap:round;stroke-linejoin:round;stroke-miterlimit:10;stroke-dasharray:none;stroke-opacity:1"
             d="M 0,0 V -9.093" /></g><g
           transform="translate(16.1377,66.2778)"
           id="g36"><path
             id="path38"
             style="fill:none;stroke:#2d2d2d;stroke-width:3;stroke-linecap:round;stroke-linejoin:round;stroke-miterlimit:10;stroke-dasharray:none;stroke-opacity:1"
             d="m 0,0 v -10.784 -8.275 c 0,-7.85 6.366,-14.216 14.215,-14.216 7.854,0 14.218,6.366 14.218,14.216 V -10.784 0 C 19.271,3.462 9.162,3.462 0,0 Z" /></g><g
           transform="translate(38.3472,35.627)"
           id="g40"><path
             id="path42"
             style="fill:none;stroke:#2d2d2d;stroke-width:2;stroke-linecap:round;stroke-linejoin:round;stroke-miterlimit:10;stroke-dasharray:none;stroke-opacity:1"
             d="m 0,0 v 10.571 c -2.051,1.101 -4.875,1.603 -7.995,1.603 -3.119,0 -5.94,-0.502 -7.991,-1.603 V 0" /></g><g
           transform="translate(34.2471,59.377)"
           id="g44"><path
             id="path46"
             style="fill:none;stroke:#2d2d2d;stroke-width:2;stroke-linecap:round;stroke-linejoin:round;stroke-miterlimit:10;stroke-dasharray:none;stroke-opacity:1"
             d="m 0,0 c -1.258,0.088 -2.56,0.135 -3.895,0.135 -5.209,0 -9.927,-0.709 -13.349,-1.851" /></g><g
           transform="translate(43.7051,57.6606)"
           id="g48"><path
             id="path50"
             style="fill:none;stroke:#2d2d2d;stroke-width:2;stroke-linecap:round;stroke-linejoin:round;stroke-miterlimit:10;stroke-dasharray:none;stroke-opacity:1"
             d="M 0,0 C -1.238,0.415 -2.647,0.769 -4.186,1.055" /></g></g></g></g></svg>