<?xml version="1.0" encoding="UTF-8" standalone="no"?>
<svg
   xmlns:dc="http://purl.org/dc/elements/1.1/"
   xmlns:cc="http://creativecommons.org/ns#"
   xmlns:rdf="http://www.w3.org/1999/02/22-rdf-syntax-ns#"
   xmlns:svg="http://www.w3.org/2000/svg"
   xmlns="http://www.w3.org/2000/svg"
   viewBox="0 0 93.639336 93.492798"
   height="93.492798"
   width="93.639336"
   xml:space="preserve"
   id="svg2"
   version="1.1"><metadata
     id="metadata8"><rdf:RDF><cc:Work
         rdf:about=""><dc:format>image/svg+xml</dc:format><dc:type
           rdf:resource="http://purl.org/dc/dcmitype/StillImage" /></cc:Work></rdf:RDF></metadata><defs
     id="defs6"><clipPath
       id="clipPath34"
       clipPathUnits="userSpaceOnUse"><path
         id="path32"
         d="M 0,70.12 H 70.229 V 0 H 0 Z" /></clipPath></defs><g
     transform="matrix(1.3333333,0,0,-1.3333333,0,93.4928)"
     id="g10"><g
       transform="translate(57.0649,43.063)"
       id="g12"><path
         id="path14"
         style="fill:none;stroke:#2d2d2d;stroke-width:3;stroke-linecap:round;stroke-linejoin:round;stroke-miterlimit:10;stroke-dasharray:none;stroke-opacity:1"
         d="M 0,0 -14.005,14" /></g><g
       transform="translate(57.7139,57.7144)"
       id="g16"><path
         id="path18"
         style="fill:none;stroke:#2d2d2d;stroke-width:3;stroke-linecap:round;stroke-linejoin:round;stroke-miterlimit:10;stroke-dasharray:none;stroke-opacity:1"
         d="M 0,0 -7.65,-7.652" /></g><g
       transform="translate(41.1094,41.1079)"
       id="g20"><path
         id="path22"
         style="fill:none;stroke:#2d2d2d;stroke-width:2;stroke-linecap:round;stroke-linejoin:round;stroke-miterlimit:10;stroke-dasharray:none;stroke-opacity:1"
         d="M 0,0 -21.396,-21.395" /></g><g
       transform="translate(21.4097,18.0073)"
       id="g24"><path
         id="path26"
         style="fill:none;stroke:#2d2d2d;stroke-width:2;stroke-linecap:round;stroke-linejoin:round;stroke-miterlimit:10;stroke-dasharray:none;stroke-opacity:1"
         d="M 0,0 -3.396,3.41" /></g><g
       id="g28"><g
         clip-path="url(#clipPath34)"
         id="g30"><g
           transform="translate(46.0571,54.2554)"
           id="g36"><path
             id="path38"
             style="fill:#2d2d2d;fill-opacity:1;fill-rule:nonzero;stroke:none"
             d="m 0,0 c -0.768,0 -1.536,-0.293 -2.122,-0.878 l -34.506,-34.507 c -1.172,-1.172 -1.172,-3.071 -10e-4,-4.242 l 5.198,-5.2 c 0.562,-0.562 1.326,-0.879 2.121,-0.879 0.796,0 1.559,0.316 2.122,0.879 l 34.509,34.509 c 0.562,0.563 0.878,1.326 0.878,2.122 0,0.795 -0.316,1.558 -0.879,2.121 L 2.121,-0.878 C 1.535,-0.293 0.768,0 0,0 m 0,-3 5.199,-5.197 -34.509,-34.509 -5.197,5.2 L 0,-3" /></g><g
           transform="translate(44.8447,37.3696)"
           id="g40"><path
             id="path42"
             style="fill:none;stroke:#2d2d2d;stroke-width:2;stroke-linecap:round;stroke-linejoin:round;stroke-miterlimit:10;stroke-dasharray:none;stroke-opacity:1"
             d="M 0,0 -7.425,7.429" /></g><g
           transform="translate(57.7466,66.7466)"
           id="g44"><path
             id="path46"
             style="fill:none;stroke:#2d2d2d;stroke-width:3;stroke-linecap:round;stroke-linejoin:round;stroke-miterlimit:10;stroke-dasharray:none;stroke-opacity:1"
             d="m 0,0 c -2.504,-2.5 -2.495,-6.572 0.022,-9.087 2.517,-2.517 6.586,-2.526 9.09,-0.022 2.503,2.503 2.493,6.57 -0.021,9.088 C 6.574,2.496 2.504,2.506 0,0 Z" /></g><g
           transform="translate(12.9038,12.9048)"
           id="g48"><path
             id="path50"
             style="fill:none;stroke:#2d2d2d;stroke-width:2;stroke-linecap:round;stroke-linejoin:round;stroke-miterlimit:10;stroke-dasharray:none;stroke-opacity:1"
             d="M 0,0 -11.904,-11.905" /></g></g></g></g></svg>