<?xml version="1.0" encoding="UTF-8" standalone="no"?>
<svg
   xmlns:dc="http://purl.org/dc/elements/1.1/"
   xmlns:cc="http://creativecommons.org/ns#"
   xmlns:rdf="http://www.w3.org/1999/02/22-rdf-syntax-ns#"
   xmlns:svg="http://www.w3.org/2000/svg"
   xmlns="http://www.w3.org/2000/svg"
   viewBox="0 0 78.903603 93.673203"
   height="93.673203"
   width="78.903603"
   xml:space="preserve"
   id="svg2"
   version="1.1"><metadata
     id="metadata8"><rdf:RDF><cc:Work
         rdf:about=""><dc:format>image/svg+xml</dc:format><dc:type
           rdf:resource="http://purl.org/dc/dcmitype/StillImage" /></cc:Work></rdf:RDF></metadata><defs
     id="defs6"><clipPath
       id="clipPath18"
       clipPathUnits="userSpaceOnUse"><path
         id="path16"
         d="M 0,70.255 H 59.178 V 0 H 0 Z" /></clipPath></defs><g
     transform="matrix(1.3333333,0,0,-1.3333333,0,93.6732)"
     id="g10"><g
       id="g12"><g
         clip-path="url(#clipPath18)"
         id="g14"><g
           transform="translate(38.5923,16.1997)"
           id="g20"><path
             id="path22"
             style="fill:none;stroke:#2d2d2d;stroke-width:2.5;stroke-linecap:round;stroke-linejoin:round;stroke-miterlimit:10;stroke-dasharray:none;stroke-opacity:1"
             d="m 0,0 c 8.785,0 19.085,18.314 19.085,33.929 0,13.569 -8.463,20.887 -20.154,18.003 -3.345,-0.823 -5.574,-1.115 -7.935,-1.115 -2.361,0 -4.59,0.292 -7.934,1.115 C -28.625,54.816 -37.092,47.498 -37.092,33.929 -37.092,18.314 -26.792,0 -18.007,0" /></g><g
           transform="translate(34.1494,42.8057)"
           id="g24"><path
             id="path26"
             style="fill:#2d2d2d;fill-opacity:1;fill-rule:nonzero;stroke:none"
             d="m 0,0 h -9.353 c -0.874,0 -1.684,-0.456 -2.137,-1.203 l -2.072,-3.412 c -0.264,-0.436 -0.389,-0.942 -0.358,-1.45 l 2.071,-33.893 c 0.081,-1.319 1.174,-2.348 2.496,-2.348 H 0 c 1.321,0 2.415,1.029 2.495,2.348 l 2.076,33.893 c 0.032,0.509 -0.094,1.016 -0.359,1.452 L 2.136,-1.201 C 1.683,-0.455 0.873,0 0,0 M 0,-2.5 2.076,-5.913 0,-39.806 h -9.353 l -2.072,33.893 2.072,3.413 H 0" /></g><g
           transform="translate(38.5923,16.1997)"
           id="g28"><path
             id="path30"
             style="fill:none;stroke:#2d2d2d;stroke-width:3;stroke-linecap:round;stroke-linejoin:round;stroke-miterlimit:10;stroke-dasharray:none;stroke-opacity:1"
             d="m 0,0 c 8.785,0 19.085,18.314 19.085,33.929 0,13.569 -8.463,20.887 -20.154,18.003 -3.345,-0.823 -5.574,-1.115 -7.935,-1.115 -2.361,0 -4.59,0.292 -7.934,1.115 C -28.625,54.816 -37.092,47.498 -37.092,33.929 -37.092,18.314 -26.792,0 -18.007,0" /></g><g
           transform="translate(34.1494,43.3057)"
           id="g32"><path
             id="path34"
             style="fill:#2d2d2d;fill-opacity:1;fill-rule:nonzero;stroke:none"
             d="m 0,0 h -9.353 c -1.048,0 -2.021,-0.547 -2.564,-1.443 l -2.072,-3.413 c -0.318,-0.522 -0.468,-1.129 -0.43,-1.74 l 2.071,-33.893 c 0.097,-1.582 1.41,-2.817 2.995,-2.817 H 0 c 1.586,0 2.897,1.234 2.994,2.817 L 5.07,-6.596 c 0.037,0.611 -0.113,1.219 -0.431,1.742 L 2.563,-1.441 C 2.019,-0.546 1.047,0 0,0 M 0,-3 2.076,-6.413 0,-40.306 H -9.353 L -11.425,-6.413 -9.353,-3 H 0" /></g><g
           transform="translate(22.1074,36.832)"
           id="g36"><path
             id="path38"
             style="fill:none;stroke:#2d2d2d;stroke-width:2;stroke-linecap:round;stroke-linejoin:round;stroke-miterlimit:10;stroke-dasharray:none;stroke-opacity:1"
             d="M 0,0 H 14.731" /></g><g
           transform="translate(33.8589,15.6309)"
           id="g40"><path
             id="path42"
             style="fill:none;stroke:#2d2d2d;stroke-width:2;stroke-linecap:round;stroke-linejoin:round;stroke-miterlimit:10;stroke-dasharray:none;stroke-opacity:1"
             d="M 0,0 4.524,0.619" /></g><g
           transform="translate(20.626,13.8247)"
           id="g44"><path
             id="path46"
             style="fill:none;stroke:#2d2d2d;stroke-width:2;stroke-linecap:round;stroke-linejoin:round;stroke-miterlimit:10;stroke-dasharray:none;stroke-opacity:1"
             d="M 0,0 8.998,1.23" /></g><g
           transform="translate(33.8135,8.6597)"
           id="g48"><path
             id="path50"
             style="fill:none;stroke:#2d2d2d;stroke-width:2;stroke-linecap:round;stroke-linejoin:round;stroke-miterlimit:10;stroke-dasharray:none;stroke-opacity:1"
             d="M 0,0 4.153,0.567" /></g><g
           transform="translate(20.8159,6.8857)"
           id="g52"><path
             id="path54"
             style="fill:none;stroke:#2d2d2d;stroke-width:2;stroke-linecap:round;stroke-linejoin:round;stroke-miterlimit:10;stroke-dasharray:none;stroke-opacity:1"
             d="M 0,0 8.81,1.203" /></g><g
           transform="translate(33.7549,22.5806)"
           id="g56"><path
             id="path58"
             style="fill:none;stroke:#2d2d2d;stroke-width:2;stroke-linecap:round;stroke-linejoin:round;stroke-miterlimit:10;stroke-dasharray:none;stroke-opacity:1"
             d="M 0,0 5.141,0.701" /></g><g
           transform="translate(20.3926,20.7534)"
           id="g60"><path
             id="path62"
             style="fill:none;stroke:#2d2d2d;stroke-width:2;stroke-linecap:round;stroke-linejoin:round;stroke-miterlimit:10;stroke-dasharray:none;stroke-opacity:1"
             d="M 0,0 9.231,1.264" /></g><g
           transform="translate(33.5654,29.5161)"
           id="g64"><path
             id="path66"
             style="fill:none;stroke:#2d2d2d;stroke-width:2;stroke-linecap:round;stroke-linejoin:round;stroke-miterlimit:10;stroke-dasharray:none;stroke-opacity:1"
             d="M 0,0 5.696,0.781" /></g><g
           transform="translate(20.0884,27.6729)"
           id="g68"><path
             id="path70"
             style="fill:none;stroke:#2d2d2d;stroke-width:2;stroke-linecap:round;stroke-linejoin:round;stroke-miterlimit:10;stroke-dasharray:none;stroke-opacity:1"
             d="M 0,0 9.536,1.306" /></g></g></g></g></svg>