<?xml version="1.0" encoding="UTF-8" standalone="no"?>
<svg
   xmlns:dc="http://purl.org/dc/elements/1.1/"
   xmlns:cc="http://creativecommons.org/ns#"
   xmlns:rdf="http://www.w3.org/1999/02/22-rdf-syntax-ns#"
   xmlns:svg="http://www.w3.org/2000/svg"
   xmlns="http://www.w3.org/2000/svg"
   viewBox="0 0 94.308533 65.367203"
   height="65.367203"
   width="94.308533"
   xml:space="preserve"
   id="svg2"
   version="1.1"><metadata
     id="metadata8"><rdf:RDF><cc:Work
         rdf:about=""><dc:format>image/svg+xml</dc:format><dc:type
           rdf:resource="http://purl.org/dc/dcmitype/StillImage" /></cc:Work></rdf:RDF></metadata><defs
     id="defs6"><clipPath
       id="clipPath18"
       clipPathUnits="userSpaceOnUse"><path
         id="path16"
         d="M 0,49.025 H 70.731 V 0 H 0 Z" /></clipPath></defs><g
     transform="matrix(1.3333333,0,0,-1.3333333,0,65.3672)"
     id="g10"><g
       id="g12"><g
         clip-path="url(#clipPath18)"
         id="g14"><g
           transform="translate(35.4355,24.2539)"
           id="g20"><path
             id="path22"
             style="fill:none;stroke:#2d2d2d;stroke-width:3;stroke-linecap:round;stroke-linejoin:round;stroke-miterlimit:10;stroke-dasharray:none;stroke-opacity:1"
             d="m 0,0 c 5.963,0 4.485,-13.059 3.508,-18.078 -0.757,-3.912 1.806,-4.676 3.119,-4.676 6.466,0 9.439,19.862 10.73,31.646 C 18.832,22.3 13.847,24.754 5.598,22.564 3.238,21.939 1.667,21.72 0,21.72 c -1.667,0 -3.239,0.219 -5.599,0.844 -8.248,2.19 -13.233,-0.264 -11.76,-13.672 1.293,-11.784 4.266,-31.646 10.732,-31.646 1.313,0 3.876,0.764 3.119,4.676 C -4.485,-13.059 -5.963,0 0,0 Z" /></g><g
           transform="translate(1,29.4688)"
           id="g24"><path
             id="path26"
             style="fill:none;stroke:#2d2d2d;stroke-width:2;stroke-linecap:round;stroke-linejoin:round;stroke-miterlimit:10;stroke-dasharray:none;stroke-opacity:1"
             d="M 0,0 H 9.384" /></g><g
           transform="translate(4.0566,39.1338)"
           id="g28"><path
             id="path30"
             style="fill:none;stroke:#2d2d2d;stroke-width:2;stroke-linecap:round;stroke-linejoin:round;stroke-miterlimit:10;stroke-dasharray:none;stroke-opacity:1"
             d="M 0,0 7.184,-2.646" /></g><g
           transform="translate(11.2402,22.3662)"
           id="g32"><path
             id="path34"
             style="fill:none;stroke:#2d2d2d;stroke-width:2;stroke-linecap:round;stroke-linejoin:round;stroke-miterlimit:10;stroke-dasharray:none;stroke-opacity:1"
             d="M 0,0 -6.723,-2.477" /></g><g
           transform="translate(69.7314,29.4688)"
           id="g36"><path
             id="path38"
             style="fill:none;stroke:#2d2d2d;stroke-width:2;stroke-linecap:round;stroke-linejoin:round;stroke-miterlimit:10;stroke-dasharray:none;stroke-opacity:1"
             d="M 0,0 H -9.384" /></g><g
           transform="translate(66.6748,39.1338)"
           id="g40"><path
             id="path42"
             style="fill:none;stroke:#2d2d2d;stroke-width:2;stroke-linecap:round;stroke-linejoin:round;stroke-miterlimit:10;stroke-dasharray:none;stroke-opacity:1"
             d="M 0,0 -7.183,-2.646" /></g><g
           transform="translate(59.4917,22.3662)"
           id="g44"><path
             id="path46"
             style="fill:none;stroke:#2d2d2d;stroke-width:2;stroke-linecap:round;stroke-linejoin:round;stroke-miterlimit:10;stroke-dasharray:none;stroke-opacity:1"
             d="M 0,0 6.722,-2.477" /></g></g></g></g></svg>